<?xml version="1.0" encoding="UTF-8" standalone="no"?><svg xmlns="http://www.w3.org/2000/svg" xmlns:xlink="http://www.w3.org/1999/xlink" clip-rule="evenodd" stroke-miterlimit="4.00" viewBox="0 0 1024 768"><desc>SVG generated by Keynote</desc><defs></defs><g transform="matrix(1.00, 0.00, -0.00, -1.00, 0.0, 768.0)"><path d="M 0.0 768.0 L 1024.0 768.0 L 1024.0 0.0 L 0.0 0.0 Z M 0.0 768.0 " fill="#FEFFFF"></path><text xml:space="preserve" font-family="Helvetica-Light" font-size="69.0" fill="#000000" transform="matrix(1.00, 0.00, -0.00, -1.00, 47.0, 549.0)">Y</text><text xml:space="preserve" font-family="Helvetica-Light" font-size="69.0" fill="#000000" transform="matrix(1.00, 0.00, -0.00, -1.00, 82.8, 549.0)">o</text><text xml:space="preserve" font-family="Helvetica-Light" font-size="69.0" fill="#000000" transform="matrix(1.00, 0.00, -0.00, -1.00, 121.2, 549.0)">u</text><text xml:space="preserve" font-family="Helvetica-Light" font-size="69.0" fill="#000000" transform="matrix(1.00, 0.00, -0.00, -1.00, 159.5, 549.0)"> </text><text xml:space="preserve" font-family="Helvetica-Light" font-size="69.0" fill="#000000" transform="matrix(1.00, 0.00, -0.00, -1.00, 178.7, 549.0)">A</text><text xml:space="preserve" font-family="Helvetica-Light" font-size="69.0" fill="#000000" transform="matrix(1.00, 0.00, -0.00, -1.00, 224.7, 549.0)">r</text><text xml:space="preserve" font-family="Helvetica-Light" font-size="69.0" fill="#000000" transform="matrix(1.00, 0.00, -0.00, -1.00, 246.5, 549.0)">e</text><text xml:space="preserve" font-family="Helvetica-Light" font-size="69.0" fill="#000000" transform="matrix(1.00, 0.00, -0.00, -1.00, 284.8, 549.0)"> </text><text xml:space="preserve" font-family="Helvetica-Light" font-size="69.0" fill="#000000" transform="matrix(1.00, 0.00, -0.00, -1.00, 304.0, 549.0)">B</text><text xml:space="preserve" font-family="Helvetica-Light" font-size="69.0" fill="#000000" transform="matrix(1.00, 0.00, -0.00, -1.00, 350.0, 549.0)">e</text><text xml:space="preserve" font-family="Helvetica-Light" font-size="69.0" fill="#000000" transform="matrix(1.00, 0.00, -0.00, -1.00, 388.4, 549.0)">y</text><text xml:space="preserve" font-family="Helvetica-Light" font-size="69.0" fill="#000000" transform="matrix(1.00, 0.00, -0.00, -1.00, 422.9, 549.0)">o</text><text xml:space="preserve" font-family="Helvetica-Light" font-size="69.0" fill="#000000" transform="matrix(1.00, 0.00, -0.00, -1.00, 461.3, 549.0)">n</text><text xml:space="preserve" font-family="Helvetica-Light" font-size="69.0" fill="#000000" transform="matrix(1.00, 0.00, -0.00, -1.00, 499.6, 549.0)">c</text><text xml:space="preserve" font-family="Helvetica-Light" font-size="69.0" fill="#000000" transform="matrix(1.00, 0.00, -0.00, -1.00, 538.0, 549.0)">e</text><text xml:space="preserve" font-family="Helvetica-Light" font-size="69.0" fill="#000000" transform="matrix(1.00, 0.00, -0.00, -1.00, 576.4, 549.0)">’</text><text xml:space="preserve" font-family="Helvetica-Light" font-size="69.0" fill="#000000" transform="matrix(1.00, 0.00, -0.00, -1.00, 586.6, 549.0)">s</text><text xml:space="preserve" font-family="Helvetica-Light" font-size="69.0" fill="#000000" transform="matrix(1.00, 0.00, -0.00, -1.00, 621.1, 549.0)"> </text><text xml:space="preserve" font-family="Helvetica-Light" font-size="69.0" fill="#000000" transform="matrix(1.00, 0.00, -0.00, -1.00, 640.3, 549.0)">A</text><text xml:space="preserve" font-family="Helvetica-Light" font-size="69.0" fill="#000000" transform="matrix(1.00, 0.00, -0.00, -1.00, 686.3, 549.0)">c</text><text xml:space="preserve" font-family="Helvetica-Light" font-size="69.0" fill="#000000" transform="matrix(1.00, 0.00, -0.00, -1.00, 724.6, 549.0)">c</text><text xml:space="preserve" font-family="Helvetica-Light" font-size="69.0" fill="#000000" transform="matrix(1.00, 0.00, -0.00, -1.00, 763.0, 549.0)">o</text><text xml:space="preserve" font-family="Helvetica-Light" font-size="69.0" fill="#000000" transform="matrix(1.00, 0.00, -0.00, -1.00, 801.4, 549.0)">u</text><text xml:space="preserve" font-family="Helvetica-Light" font-size="69.0" fill="#000000" transform="matrix(1.00, 0.00, -0.00, -1.00, 839.7, 549.0)">n</text><text xml:space="preserve" font-family="Helvetica-Light" font-size="69.0" fill="#000000" transform="matrix(1.00, 0.00, -0.00, -1.00, 878.1, 549.0)">t</text><text xml:space="preserve" font-family="Helvetica-Light" font-size="69.0" fill="#000000" transform="matrix(1.00, 0.00, -0.00, -1.00, 897.3, 549.0)">a</text><text xml:space="preserve" font-family="Helvetica-Light" font-size="69.0" fill="#000000" transform="matrix(1.00, 0.00, -0.00, -1.00, 935.7, 549.0)">n</text><text xml:space="preserve" font-family="Helvetica-Light" font-size="69.0" fill="#000000" transform="matrix(1.00, 0.00, -0.00, -1.00, 974.0, 549.0)">t</text><text xml:space="preserve" font-family="Helvetica-Light" font-size="69.0" fill="#000000" transform="matrix(1.00, 0.00, -0.00, -1.00, 993.2, 549.0)"> </text><text xml:space="preserve" font-family="Helvetica-LightOblique" font-style="italic" font-size="36.0" fill="#000000" transform="matrix(1.00, 0.00, -0.00, -1.00, 220.0, 371.0)">y</text><text xml:space="preserve" font-family="Helvetica-LightOblique" font-style="italic" font-size="36.0" fill="#000000" transform="matrix(1.00, 0.00, -0.00, -1.00, 238.0, 371.0)">o</text><text xml:space="preserve" font-family="Helvetica-LightOblique" font-style="italic" font-size="36.0" fill="#000000" transform="matrix(1.00, 0.00, -0.00, -1.00, 258.0, 371.0)">u</text><text xml:space="preserve" font-family="Helvetica-LightOblique" font-style="italic" font-size="36.0" fill="#000000" transform="matrix(1.00, 0.00, -0.00, -1.00, 278.0, 371.0)">r</text><text xml:space="preserve" font-family="Helvetica-LightOblique" font-style="italic" font-size="36.0" fill="#000000" transform="matrix(1.00, 0.00, -0.00, -1.00, 290.0, 371.0)"> </text><text xml:space="preserve" font-family="Helvetica-LightOblique" font-style="italic" font-size="36.0" fill="#000000" transform="matrix(1.00, 0.00, -0.00, -1.00, 300.0, 371.0)">w</text><text xml:space="preserve" font-family="Helvetica-LightOblique" font-style="italic" font-size="36.0" fill="#000000" transform="matrix(1.00, 0.00, -0.00, -1.00, 326.0, 371.0)">i</text><text xml:space="preserve" font-family="Helvetica-LightOblique" font-style="italic" font-size="36.0" fill="#000000" transform="matrix(1.00, 0.00, -0.00, -1.00, 334.0, 371.0)">l</text><text xml:space="preserve" font-family="Helvetica-LightOblique" font-style="italic" font-size="36.0" fill="#000000" transform="matrix(1.00, 0.00, -0.00, -1.00, 342.0, 371.0)">d</text><text xml:space="preserve" font-family="Helvetica-LightOblique" font-style="italic" font-size="36.0" fill="#000000" transform="matrix(1.00, 0.00, -0.00, -1.00, 364.0, 371.0)">e</text><text xml:space="preserve" font-family="Helvetica-LightOblique" font-style="italic" font-size="36.0" fill="#000000" transform="matrix(1.00, 0.00, -0.00, -1.00, 384.0, 371.0)">s</text><text xml:space="preserve" font-family="Helvetica-LightOblique" font-style="italic" font-size="36.0" fill="#000000" transform="matrix(1.00, 0.00, -0.00, -1.00, 402.0, 371.0)">t</text><text xml:space="preserve" font-family="Helvetica-LightOblique" font-style="italic" font-size="36.0" fill="#000000" transform="matrix(1.00, 0.00, -0.00, -1.00, 412.0, 371.0)"> </text><text xml:space="preserve" font-family="Helvetica-LightOblique" font-style="italic" font-size="36.0" fill="#000000" transform="matrix(1.00, 0.00, -0.00, -1.00, 422.0, 371.0)">d</text><text xml:space="preserve" font-family="Helvetica-LightOblique" font-style="italic" font-size="36.0" fill="#000000" transform="matrix(1.00, 0.00, -0.00, -1.00, 444.0, 371.0)">r</text><text xml:space="preserve" font-family="Helvetica-LightOblique" font-style="italic" font-size="36.0" fill="#000000" transform="matrix(1.00, 0.00, -0.00, -1.00, 455.4, 371.0)">e</text><text xml:space="preserve" font-family="Helvetica-LightOblique" font-style="italic" font-size="36.0" fill="#000000" transform="matrix(1.00, 0.00, -0.00, -1.00, 475.4, 371.0)">a</text><text xml:space="preserve" font-family="Helvetica-LightOblique" font-style="italic" font-size="36.0" fill="#000000" transform="matrix(1.00, 0.00, -0.00, -1.00, 495.4, 371.0)">m</text><text xml:space="preserve" font-family="Helvetica-LightOblique" font-style="italic" font-size="36.0" fill="#000000" transform="matrix(1.00, 0.00, -0.00, -1.00, 525.4, 371.0)">s</text><text xml:space="preserve" font-family="Helvetica-LightOblique" font-style="italic" font-size="36.0" fill="#000000" transform="matrix(1.00, 0.00, -0.00, -1.00, 543.4, 371.0)"> </text><text xml:space="preserve" font-family="Helvetica-LightOblique" font-style="italic" font-size="36.0" fill="#000000" transform="matrix(1.00, 0.00, -0.00, -1.00, 553.4, 371.0)">h</text><text xml:space="preserve" font-family="Helvetica-LightOblique" font-style="italic" font-size="36.0" fill="#000000" transform="matrix(1.00, 0.00, -0.00, -1.00, 573.4, 371.0)">a</text><text xml:space="preserve" font-family="Helvetica-LightOblique" font-style="italic" font-size="36.0" fill="#000000" transform="matrix(1.00, 0.00, -0.00, -1.00, 593.4, 371.0)">v</text><text xml:space="preserve" font-family="Helvetica-LightOblique" font-style="italic" font-size="36.0" fill="#000000" transform="matrix(1.00, 0.00, -0.00, -1.00, 611.4, 371.0)">e</text><text xml:space="preserve" font-family="Helvetica-LightOblique" font-style="italic" font-size="36.0" fill="#000000" transform="matrix(1.00, 0.00, -0.00, -1.00, 631.4, 371.0)"> </text><text xml:space="preserve" font-family="Helvetica-LightOblique" font-style="italic" font-size="36.0" fill="#000000" transform="matrix(1.00, 0.00, -0.00, -1.00, 641.5, 371.0)">c</text><text xml:space="preserve" font-family="Helvetica-LightOblique" font-style="italic" font-size="36.0" fill="#000000" transform="matrix(1.00, 0.00, -0.00, -1.00, 661.5, 371.0)">o</text><text xml:space="preserve" font-family="Helvetica-LightOblique" font-style="italic" font-size="36.0" fill="#000000" transform="matrix(1.00, 0.00, -0.00, -1.00, 681.5, 371.0)">m</text><text xml:space="preserve" font-family="Helvetica-LightOblique" font-style="italic" font-size="36.0" fill="#000000" transform="matrix(1.00, 0.00, -0.00, -1.00, 711.5, 371.0)">e</text><text xml:space="preserve" font-family="Helvetica-LightOblique" font-style="italic" font-size="36.0" fill="#000000" transform="matrix(1.00, 0.00, -0.00, -1.00, 731.5, 371.0)"> </text><text xml:space="preserve" font-family="Helvetica-LightOblique" font-style="italic" font-size="36.0" fill="#000000" transform="matrix(1.00, 0.00, -0.00, -1.00, 741.5, 371.0)">t</text><text xml:space="preserve" font-family="Helvetica-LightOblique" font-style="italic" font-size="36.0" fill="#000000" transform="matrix(1.00, 0.00, -0.00, -1.00, 751.5, 371.0)">r</text><text xml:space="preserve" font-family="Helvetica-LightOblique" font-style="italic" font-size="36.0" fill="#000000" transform="matrix(1.00, 0.00, -0.00, -1.00, 763.5, 371.0)">u</text><text xml:space="preserve" font-family="Helvetica-LightOblique" font-style="italic" font-size="36.0" fill="#000000" transform="matrix(1.00, 0.00, -0.00, -1.00, 783.5, 371.0)">e</text></g></svg>