<?xml version="1.0" encoding="UTF-8" standalone="no"?><svg xmlns="http://www.w3.org/2000/svg" xmlns:xlink="http://www.w3.org/1999/xlink" clip-rule="evenodd" stroke-miterlimit="4.00" viewBox="0 0 1024 768"><desc>SVG generated by Keynote</desc><defs></defs><g transform="matrix(1.00, 0.00, -0.00, -1.00, 0.0, 768.0)"><path d="M 0.0 768.0 L 1024.0 768.0 L 1024.0 0.0 L 0.0 0.0 Z M 0.0 768.0 " fill="#FEFFFF"></path><text xml:space="preserve" font-family="Helvetica-Light" font-size="80.0" fill="#000000" transform="matrix(1.00, 0.00, -0.00, -1.00, 339.0, 618.0)">Y</text><text xml:space="preserve" font-family="Helvetica-Light" font-size="80.0" fill="#000000" transform="matrix(1.00, 0.00, -0.00, -1.00, 380.5, 618.0)">o</text><text xml:space="preserve" font-family="Helvetica-Light" font-size="80.0" fill="#000000" transform="matrix(1.00, 0.00, -0.00, -1.00, 425.0, 618.0)">u</text><text xml:space="preserve" font-family="Helvetica-Light" font-size="80.0" fill="#000000" transform="matrix(1.00, 0.00, -0.00, -1.00, 469.5, 618.0)">r</text><text xml:space="preserve" font-family="Helvetica-Light" font-size="80.0" fill="#000000" transform="matrix(1.00, 0.00, -0.00, -1.00, 496.1, 618.0)"> </text><text xml:space="preserve" font-family="Helvetica-Light" font-size="80.0" fill="#000000" transform="matrix(1.00, 0.00, -0.00, -1.00, 518.4, 618.0)">t</text><text xml:space="preserve" font-family="Helvetica-Light" font-size="80.0" fill="#000000" transform="matrix(1.00, 0.00, -0.00, -1.00, 540.6, 618.0)">u</text><text xml:space="preserve" font-family="Helvetica-Light" font-size="80.0" fill="#000000" transform="matrix(1.00, 0.00, -0.00, -1.00, 585.1, 618.0)">r</text><text xml:space="preserve" font-family="Helvetica-Light" font-size="80.0" fill="#000000" transform="matrix(1.00, 0.00, -0.00, -1.00, 613.2, 618.0)">n</text><text xml:space="preserve" font-family="Helvetica-Light" font-size="80.0" fill="#000000" transform="matrix(1.00, 0.00, -0.00, -1.00, 657.6, 618.0)">!</text><text xml:space="preserve" font-family="Helvetica-Light" font-size="34.2" fill="#000000" transform="matrix(1.00, 0.00, -0.00, -1.00, 79.0, 444.0)">W</text><text xml:space="preserve" font-family="Helvetica-Light" font-size="34.2" fill="#000000" transform="matrix(1.00, 0.00, -0.00, -1.00, 109.4, 444.0)">h</text><text xml:space="preserve" font-family="Helvetica-Light" font-size="34.2" fill="#000000" transform="matrix(1.00, 0.00, -0.00, -1.00, 128.4, 444.0)">a</text><text xml:space="preserve" font-family="Helvetica-Light" font-size="34.2" fill="#000000" transform="matrix(1.00, 0.00, -0.00, -1.00, 147.4, 444.0)">t</text><text xml:space="preserve" font-family="Helvetica-Light" font-size="34.2" fill="#000000" transform="matrix(1.00, 0.00, -0.00, -1.00, 156.9, 444.0)"> </text><text xml:space="preserve" font-family="Helvetica-Light" font-size="34.2" fill="#000000" transform="matrix(1.00, 0.00, -0.00, -1.00, 166.4, 444.0)">d</text><text xml:space="preserve" font-family="Helvetica-Light" font-size="34.2" fill="#000000" transform="matrix(1.00, 0.00, -0.00, -1.00, 187.3, 444.0)">o</text><text xml:space="preserve" font-family="Helvetica-Light" font-size="34.2" fill="#000000" transform="matrix(1.00, 0.00, -0.00, -1.00, 206.4, 444.0)"> </text><text xml:space="preserve" font-family="Helvetica-Light" font-size="34.2" fill="#000000" transform="matrix(1.00, 0.00, -0.00, -1.00, 215.9, 444.0)">y</text><text xml:space="preserve" font-family="Helvetica-Light" font-size="34.2" fill="#000000" transform="matrix(1.00, 0.00, -0.00, -1.00, 233.0, 444.0)">o</text><text xml:space="preserve" font-family="Helvetica-Light" font-size="34.2" fill="#000000" transform="matrix(1.00, 0.00, -0.00, -1.00, 252.0, 444.0)">u</text><text xml:space="preserve" font-family="Helvetica-Light" font-size="34.2" fill="#000000" transform="matrix(1.00, 0.00, -0.00, -1.00, 271.0, 444.0)"> </text><text xml:space="preserve" font-family="Helvetica-Light" font-size="34.2" fill="#000000" transform="matrix(1.00, 0.00, -0.00, -1.00, 280.5, 444.0)">t</text><text xml:space="preserve" font-family="Helvetica-Light" font-size="34.2" fill="#000000" transform="matrix(1.00, 0.00, -0.00, -1.00, 290.0, 444.0)">h</text><text xml:space="preserve" font-family="Helvetica-Light" font-size="34.2" fill="#000000" transform="matrix(1.00, 0.00, -0.00, -1.00, 309.0, 444.0)">i</text><text xml:space="preserve" font-family="Helvetica-Light" font-size="34.2" fill="#000000" transform="matrix(1.00, 0.00, -0.00, -1.00, 316.6, 444.0)">n</text><text xml:space="preserve" font-family="Helvetica-Light" font-size="34.2" fill="#000000" transform="matrix(1.00, 0.00, -0.00, -1.00, 335.6, 444.0)">k</text><text xml:space="preserve" font-family="Helvetica-Light" font-size="34.2" fill="#000000" transform="matrix(1.00, 0.00, -0.00, -1.00, 352.7, 444.0)"> </text><text xml:space="preserve" font-family="Helvetica-Light" font-size="34.2" fill="#000000" transform="matrix(1.00, 0.00, -0.00, -1.00, 362.2, 444.0)">w</text><text xml:space="preserve" font-family="Helvetica-Light" font-size="34.2" fill="#000000" transform="matrix(1.00, 0.00, -0.00, -1.00, 386.9, 444.0)">i</text><text xml:space="preserve" font-family="Helvetica-Light" font-size="34.2" fill="#000000" transform="matrix(1.00, 0.00, -0.00, -1.00, 394.5, 444.0)">l</text><text xml:space="preserve" font-family="Helvetica-Light" font-size="34.2" fill="#000000" transform="matrix(1.00, 0.00, -0.00, -1.00, 402.1, 444.0)">l</text><text xml:space="preserve" font-family="Helvetica-Light" font-size="34.2" fill="#000000" transform="matrix(1.00, 0.00, -0.00, -1.00, 409.7, 444.0)"> </text><text xml:space="preserve" font-family="Helvetica-Light" font-size="34.2" fill="#000000" transform="matrix(1.00, 0.00, -0.00, -1.00, 419.2, 444.0)">h</text><text xml:space="preserve" font-family="Helvetica-Light" font-size="34.2" fill="#000000" transform="matrix(1.00, 0.00, -0.00, -1.00, 438.2, 444.0)">a</text><text xml:space="preserve" font-family="Helvetica-Light" font-size="34.2" fill="#000000" transform="matrix(1.00, 0.00, -0.00, -1.00, 457.3, 444.0)">p</text><text xml:space="preserve" font-family="Helvetica-Light" font-size="34.2" fill="#000000" transform="matrix(1.00, 0.00, -0.00, -1.00, 478.1, 444.0)">p</text><text xml:space="preserve" font-family="Helvetica-Light" font-size="34.2" fill="#000000" transform="matrix(1.00, 0.00, -0.00, -1.00, 499.0, 444.0)">e</text><text xml:space="preserve" font-family="Helvetica-Light" font-size="34.2" fill="#000000" transform="matrix(1.00, 0.00, -0.00, -1.00, 518.1, 444.0)">n</text><text xml:space="preserve" font-family="Helvetica-Light" font-size="34.2" fill="#000000" transform="matrix(1.00, 0.00, -0.00, -1.00, 537.1, 444.0)"> </text><text xml:space="preserve" font-family="Helvetica-Light" font-size="34.2" fill="#000000" transform="matrix(1.00, 0.00, -0.00, -1.00, 546.6, 444.0)">w</text><text xml:space="preserve" font-family="Helvetica-Light" font-size="34.2" fill="#000000" transform="matrix(1.00, 0.00, -0.00, -1.00, 571.3, 444.0)">h</text><text xml:space="preserve" font-family="Helvetica-Light" font-size="34.2" fill="#000000" transform="matrix(1.00, 0.00, -0.00, -1.00, 590.3, 444.0)">e</text><text xml:space="preserve" font-family="Helvetica-Light" font-size="34.2" fill="#000000" transform="matrix(1.00, 0.00, -0.00, -1.00, 609.3, 444.0)">n</text><text xml:space="preserve" font-family="Helvetica-Light" font-size="34.2" fill="#000000" transform="matrix(1.00, 0.00, -0.00, -1.00, 628.3, 444.0)"> </text><text xml:space="preserve" font-family="Helvetica-Light" font-size="34.2" fill="#000000" transform="matrix(1.00, 0.00, -0.00, -1.00, 637.8, 444.0)">y</text><text xml:space="preserve" font-family="Helvetica-Light" font-size="34.2" fill="#000000" transform="matrix(1.00, 0.00, -0.00, -1.00, 654.9, 444.0)">o</text><text xml:space="preserve" font-family="Helvetica-Light" font-size="34.2" fill="#000000" transform="matrix(1.00, 0.00, -0.00, -1.00, 673.9, 444.0)">u</text><text xml:space="preserve" font-family="Helvetica-Light" font-size="34.2" fill="#000000" transform="matrix(1.00, 0.00, -0.00, -1.00, 693.0, 444.0)"> </text><text xml:space="preserve" font-family="Helvetica-Light" font-size="34.2" fill="#000000" transform="matrix(1.00, 0.00, -0.00, -1.00, 702.5, 444.0)">e</text><text xml:space="preserve" font-family="Helvetica-Light" font-size="34.2" fill="#000000" transform="matrix(1.00, 0.00, -0.00, -1.00, 721.5, 444.0)">x</text><text xml:space="preserve" font-family="Helvetica-Light" font-size="34.2" fill="#000000" transform="matrix(1.00, 0.00, -0.00, -1.00, 738.6, 444.0)">e</text><text xml:space="preserve" font-family="Helvetica-Light" font-size="34.2" fill="#000000" transform="matrix(1.00, 0.00, -0.00, -1.00, 757.6, 444.0)">c</text><text xml:space="preserve" font-family="Helvetica-Light" font-size="34.2" fill="#000000" transform="matrix(1.00, 0.00, -0.00, -1.00, 776.6, 444.0)">u</text><text xml:space="preserve" font-family="Helvetica-Light" font-size="34.2" fill="#000000" transform="matrix(1.00, 0.00, -0.00, -1.00, 795.6, 444.0)">t</text><text xml:space="preserve" font-family="Helvetica-Light" font-size="34.2" fill="#000000" transform="matrix(1.00, 0.00, -0.00, -1.00, 805.1, 444.0)">e</text><text xml:space="preserve" font-family="Helvetica-Light" font-size="34.2" fill="#000000" transform="matrix(1.00, 0.00, -0.00, -1.00, 824.1, 444.0)"> </text><text xml:space="preserve" font-family="Helvetica-Light" font-size="34.2" fill="#000000" transform="matrix(1.00, 0.00, -0.00, -1.00, 833.7, 444.0)">t</text><text xml:space="preserve" font-family="Helvetica-Light" font-size="34.2" fill="#000000" transform="matrix(1.00, 0.00, -0.00, -1.00, 843.2, 444.0)">h</text><text xml:space="preserve" font-family="Helvetica-Light" font-size="34.2" fill="#000000" transform="matrix(1.00, 0.00, -0.00, -1.00, 862.2, 444.0)">e</text><text xml:space="preserve" font-family="Helvetica-Light" font-size="34.2" fill="#000000" transform="matrix(1.00, 0.00, -0.00, -1.00, 881.2, 444.0)"> </text><text xml:space="preserve" font-family="Helvetica-Light" font-size="34.2" fill="#000000" transform="matrix(1.00, 0.00, -0.00, -1.00, 79.0, 403.0)">f</text><text xml:space="preserve" font-family="Helvetica-Light" font-size="34.2" fill="#000000" transform="matrix(1.00, 0.00, -0.00, -1.00, 88.5, 403.0)">o</text><text xml:space="preserve" font-family="Helvetica-Light" font-size="34.2" fill="#000000" transform="matrix(1.00, 0.00, -0.00, -1.00, 107.5, 403.0)">l</text><text xml:space="preserve" font-family="Helvetica-Light" font-size="34.2" fill="#000000" transform="matrix(1.00, 0.00, -0.00, -1.00, 115.1, 403.0)">l</text><text xml:space="preserve" font-family="Helvetica-Light" font-size="34.2" fill="#000000" transform="matrix(1.00, 0.00, -0.00, -1.00, 122.7, 403.0)">o</text><text xml:space="preserve" font-family="Helvetica-Light" font-size="34.2" fill="#000000" transform="matrix(1.00, 0.00, -0.00, -1.00, 141.7, 403.0)">w</text><text xml:space="preserve" font-family="Helvetica-Light" font-size="34.2" fill="#000000" transform="matrix(1.00, 0.00, -0.00, -1.00, 166.4, 403.0)">i</text><text xml:space="preserve" font-family="Helvetica-Light" font-size="34.2" fill="#000000" transform="matrix(1.00, 0.00, -0.00, -1.00, 174.0, 403.0)">n</text><text xml:space="preserve" font-family="Helvetica-Light" font-size="34.2" fill="#000000" transform="matrix(1.00, 0.00, -0.00, -1.00, 193.0, 403.0)">g</text><text xml:space="preserve" font-family="Helvetica-Light" font-size="34.2" fill="#000000" transform="matrix(1.00, 0.00, -0.00, -1.00, 213.9, 403.0)"> </text><text xml:space="preserve" font-family="Helvetica-Light" font-size="34.2" fill="#000000" transform="matrix(1.00, 0.00, -0.00, -1.00, 223.4, 403.0)">l</text><text xml:space="preserve" font-family="Helvetica-Light" font-size="34.2" fill="#000000" transform="matrix(1.00, 0.00, -0.00, -1.00, 231.0, 403.0)">i</text><text xml:space="preserve" font-family="Helvetica-Light" font-size="34.2" fill="#000000" transform="matrix(1.00, 0.00, -0.00, -1.00, 238.6, 403.0)">n</text><text xml:space="preserve" font-family="Helvetica-Light" font-size="34.2" fill="#000000" transform="matrix(1.00, 0.00, -0.00, -1.00, 257.6, 403.0)">e</text><text xml:space="preserve" font-family="Helvetica-Light" font-size="34.2" fill="#000000" transform="matrix(1.00, 0.00, -0.00, -1.00, 276.6, 403.0)">s</text><text xml:space="preserve" font-family="Helvetica-Light" font-size="34.2" fill="#000000" transform="matrix(1.00, 0.00, -0.00, -1.00, 293.7, 403.0)"> </text><text xml:space="preserve" font-family="Helvetica-Light" font-size="34.2" fill="#000000" transform="matrix(1.00, 0.00, -0.00, -1.00, 303.2, 403.0)">o</text><text xml:space="preserve" font-family="Helvetica-Light" font-size="34.2" fill="#000000" transform="matrix(1.00, 0.00, -0.00, -1.00, 322.3, 403.0)">f</text><text xml:space="preserve" font-family="Helvetica-Light" font-size="34.2" fill="#000000" transform="matrix(1.00, 0.00, -0.00, -1.00, 331.8, 403.0)"> </text><text xml:space="preserve" font-family="Helvetica-Light" font-size="34.2" fill="#000000" transform="matrix(1.00, 0.00, -0.00, -1.00, 341.3, 403.0)">c</text><text xml:space="preserve" font-family="Helvetica-Light" font-size="34.2" fill="#000000" transform="matrix(1.00, 0.00, -0.00, -1.00, 360.3, 403.0)">o</text><text xml:space="preserve" font-family="Helvetica-Light" font-size="34.2" fill="#000000" transform="matrix(1.00, 0.00, -0.00, -1.00, 379.3, 403.0)">d</text><text xml:space="preserve" font-family="Helvetica-Light" font-size="34.2" fill="#000000" transform="matrix(1.00, 0.00, -0.00, -1.00, 400.2, 403.0)">e</text><text xml:space="preserve" font-family="Helvetica-Light" font-size="34.2" fill="#000000" transform="matrix(1.00, 0.00, -0.00, -1.00, 419.2, 403.0)">?</text><text xml:space="preserve" font-family="Helvetica-Light" font-size="34.2" fill="#000000" transform="matrix(1.00, 0.00, -0.00, -1.00, 436.3, 403.0)"> </text><text xml:space="preserve" font-family="Courier" font-size="25.7" fill="#EB5C56" transform="matrix(1.00, 0.00, -0.00, -1.00, 79.0, 326.5)">•</text><text xml:space="preserve" font-family="Courier" font-size="34.2" fill="#EB5C56" transform="matrix(1.00, 0.00, -0.00, -1.00, 112.0, 323.0)">5</text><text xml:space="preserve" font-family="Courier" font-size="34.2" fill="#EB5C56" transform="matrix(1.00, 0.00, -0.00, -1.00, 132.5, 323.0)"> </text><text xml:space="preserve" font-family="Courier" font-size="34.2" fill="#EB5C56" transform="matrix(1.00, 0.00, -0.00, -1.00, 153.1, 323.0)">+</text><text xml:space="preserve" font-family="Courier" font-size="34.2" fill="#EB5C56" transform="matrix(1.00, 0.00, -0.00, -1.00, 173.6, 323.0)"> </text><text xml:space="preserve" font-family="Courier" font-size="34.2" fill="#EB5C56" transform="matrix(1.00, 0.00, -0.00, -1.00, 194.1, 323.0)">7</text><text xml:space="preserve" font-family="Courier" font-size="25.7" fill="#EB5C56" transform="matrix(1.00, 0.00, -0.00, -1.00, 79.0, 245.6)">•</text><text xml:space="preserve" font-family="Courier" font-size="34.2" fill="#EB5C56" transform="matrix(1.00, 0.00, -0.00, -1.00, 112.0, 242.0)">“</text><text xml:space="preserve" font-family="Courier" font-size="34.2" fill="#EB5C56" transform="matrix(1.00, 0.00, -0.00, -1.00, 132.5, 242.0)">5</text><text xml:space="preserve" font-family="Courier" font-size="34.2" fill="#EB5C56" transform="matrix(1.00, 0.00, -0.00, -1.00, 153.1, 242.0)">”</text><text xml:space="preserve" font-family="Courier" font-size="34.2" fill="#EB5C56" transform="matrix(1.00, 0.00, -0.00, -1.00, 173.6, 242.0)"> </text><text xml:space="preserve" font-family="Courier" font-size="34.2" fill="#EB5C56" transform="matrix(1.00, 0.00, -0.00, -1.00, 194.1, 242.0)">+</text><text xml:space="preserve" font-family="Courier" font-size="34.2" fill="#EB5C56" transform="matrix(1.00, 0.00, -0.00, -1.00, 214.6, 242.0)"> </text><text xml:space="preserve" font-family="Courier" font-size="34.2" fill="#EB5C56" transform="matrix(1.00, 0.00, -0.00, -1.00, 235.2, 242.0)">7</text><text xml:space="preserve" font-family="Courier" font-size="25.7" fill="#EB5C56" transform="matrix(1.00, 0.00, -0.00, -1.00, 79.0, 164.7)">•</text><text xml:space="preserve" font-family="Courier" font-size="34.2" fill="#EB5C56" transform="matrix(1.00, 0.00, -0.00, -1.00, 112.0, 161.0)">7</text><text xml:space="preserve" font-family="Courier" font-size="34.2" fill="#EB5C56" transform="matrix(1.00, 0.00, -0.00, -1.00, 132.5, 161.0)"> </text><text xml:space="preserve" font-family="Courier" font-size="34.2" fill="#EB5C56" transform="matrix(1.00, 0.00, -0.00, -1.00, 153.1, 161.0)">-</text><text xml:space="preserve" font-family="Courier" font-size="34.2" fill="#EB5C56" transform="matrix(1.00, 0.00, -0.00, -1.00, 173.6, 161.0)"> </text><text xml:space="preserve" font-family="Courier" font-size="34.2" fill="#EB5C56" transform="matrix(1.00, 0.00, -0.00, -1.00, 194.1, 161.0)">5</text><text xml:space="preserve" font-family="Courier" font-size="25.7" fill="#EB5C56" transform="matrix(1.00, 0.00, -0.00, -1.00, 79.0, 83.8)">•</text><text xml:space="preserve" font-family="Courier" font-size="34.2" fill="#EB5C56" transform="matrix(1.00, 0.00, -0.00, -1.00, 112.0, 80.0)">“</text><text xml:space="preserve" font-family="Courier" font-size="34.2" fill="#EB5C56" transform="matrix(1.00, 0.00, -0.00, -1.00, 132.5, 80.0)">7</text><text xml:space="preserve" font-family="Courier" font-size="34.2" fill="#EB5C56" transform="matrix(1.00, 0.00, -0.00, -1.00, 153.1, 80.0)">”</text><text xml:space="preserve" font-family="Courier" font-size="34.2" fill="#EB5C56" transform="matrix(1.00, 0.00, -0.00, -1.00, 173.6, 80.0)"> </text><text xml:space="preserve" font-family="Courier" font-size="34.2" fill="#EB5C56" transform="matrix(1.00, 0.00, -0.00, -1.00, 194.1, 80.0)">-</text><text xml:space="preserve" font-family="Courier" font-size="34.2" fill="#EB5C56" transform="matrix(1.00, 0.00, -0.00, -1.00, 214.6, 80.0)"> </text><text xml:space="preserve" font-family="Courier" font-size="34.2" fill="#EB5C56" transform="matrix(1.00, 0.00, -0.00, -1.00, 235.2, 80.0)">5</text></g></svg>