<?xml version="1.0" encoding="UTF-8" standalone="no"?><svg xmlns="http://www.w3.org/2000/svg" xmlns:xlink="http://www.w3.org/1999/xlink" clip-rule="evenodd" stroke-miterlimit="4.00" viewBox="0 0 1024 768"><desc>SVG generated by Keynote</desc><defs></defs><g transform="matrix(1.00, 0.00, -0.00, -1.00, 0.0, 768.0)"><path d="M 0.0 768.0 L 1024.0 768.0 L 1024.0 0.0 L 0.0 0.0 Z M 0.0 768.0 " fill="#FEFFFF"></path><text xml:space="preserve" font-family="CourierNewPS-BoldMT" font-weight="bold" font-size="37.0" fill="#000000" transform="matrix(1.00, 0.00, -0.00, -1.00, 4.0, 380.0)">f</text><text xml:space="preserve" font-family="CourierNewPS-BoldMT" font-weight="bold" font-size="37.0" fill="#000000" transform="matrix(1.00, 0.00, -0.00, -1.00, 26.2, 380.0)">u</text><text xml:space="preserve" font-family="CourierNewPS-BoldMT" font-weight="bold" font-size="37.0" fill="#000000" transform="matrix(1.00, 0.00, -0.00, -1.00, 48.4, 380.0)">n</text><text xml:space="preserve" font-family="CourierNewPS-BoldMT" font-weight="bold" font-size="37.0" fill="#000000" transform="matrix(1.00, 0.00, -0.00, -1.00, 70.6, 380.0)">c</text><text xml:space="preserve" font-family="CourierNewPS-BoldMT" font-weight="bold" font-size="37.0" fill="#000000" transform="matrix(1.00, 0.00, -0.00, -1.00, 92.8, 380.0)">t</text><text xml:space="preserve" font-family="CourierNewPS-BoldMT" font-weight="bold" font-size="37.0" fill="#000000" transform="matrix(1.00, 0.00, -0.00, -1.00, 115.0, 380.0)">i</text><text xml:space="preserve" font-family="CourierNewPS-BoldMT" font-weight="bold" font-size="37.0" fill="#000000" transform="matrix(1.00, 0.00, -0.00, -1.00, 137.2, 380.0)">o</text><text xml:space="preserve" font-family="CourierNewPS-BoldMT" font-weight="bold" font-size="37.0" fill="#000000" transform="matrix(1.00, 0.00, -0.00, -1.00, 159.5, 380.0)">n</text><text xml:space="preserve" font-family="CourierNewPSMT" font-size="37.0" fill="#000000" transform="matrix(1.00, 0.00, -0.00, -1.00, 181.6, 380.0)"> </text><text xml:space="preserve" font-family="CourierNewPSMT" font-size="37.0" fill="#021993" transform="matrix(1.00, 0.00, -0.00, -1.00, 203.8, 380.0)">a</text><text xml:space="preserve" font-family="CourierNewPSMT" font-size="37.0" fill="#021993" transform="matrix(1.00, 0.00, -0.00, -1.00, 226.0, 380.0)">d</text><text xml:space="preserve" font-family="CourierNewPSMT" font-size="37.0" fill="#021993" transform="matrix(1.00, 0.00, -0.00, -1.00, 248.2, 380.0)">d</text><text xml:space="preserve" font-family="CourierNewPSMT" font-size="37.0" fill="#021993" transform="matrix(1.00, 0.00, -0.00, -1.00, 270.5, 380.0)">N</text><text xml:space="preserve" font-family="CourierNewPSMT" font-size="37.0" fill="#021993" transform="matrix(1.00, 0.00, -0.00, -1.00, 292.7, 380.0)">u</text><text xml:space="preserve" font-family="CourierNewPSMT" font-size="37.0" fill="#021993" transform="matrix(1.00, 0.00, -0.00, -1.00, 314.9, 380.0)">m</text><text xml:space="preserve" font-family="CourierNewPSMT" font-size="37.0" fill="#021993" transform="matrix(1.00, 0.00, -0.00, -1.00, 337.1, 380.0)">b</text><text xml:space="preserve" font-family="CourierNewPSMT" font-size="37.0" fill="#021993" transform="matrix(1.00, 0.00, -0.00, -1.00, 359.3, 380.0)">e</text><text xml:space="preserve" font-family="CourierNewPSMT" font-size="37.0" fill="#021993" transform="matrix(1.00, 0.00, -0.00, -1.00, 381.5, 380.0)">r</text><text xml:space="preserve" font-family="CourierNewPSMT" font-size="37.0" fill="#021993" transform="matrix(1.00, 0.00, -0.00, -1.00, 403.7, 380.0)">s</text><text xml:space="preserve" font-family="CourierNewPSMT" font-size="37.0" fill="#000000" transform="matrix(1.00, 0.00, -0.00, -1.00, 425.9, 380.0)">(</text><text xml:space="preserve" font-family="CourierNewPSMT" font-size="37.0" fill="#000000" transform="matrix(1.00, 0.00, -0.00, -1.00, 448.1, 380.0)">n</text><text xml:space="preserve" font-family="CourierNewPSMT" font-size="37.0" fill="#000000" transform="matrix(1.00, 0.00, -0.00, -1.00, 470.3, 380.0)">u</text><text xml:space="preserve" font-family="CourierNewPSMT" font-size="37.0" fill="#000000" transform="matrix(1.00, 0.00, -0.00, -1.00, 492.5, 380.0)">m</text><text xml:space="preserve" font-family="CourierNewPSMT" font-size="37.0" fill="#000000" transform="matrix(1.00, 0.00, -0.00, -1.00, 514.7, 380.0)">1</text><text xml:space="preserve" font-family="CourierNewPSMT" font-size="37.0" fill="#000000" transform="matrix(1.00, 0.00, -0.00, -1.00, 536.9, 380.0)">,</text><text xml:space="preserve" font-family="CourierNewPSMT" font-size="37.0" fill="#000000" transform="matrix(1.00, 0.00, -0.00, -1.00, 559.1, 380.0)"> </text><text xml:space="preserve" font-family="CourierNewPSMT" font-size="37.0" fill="#000000" transform="matrix(1.00, 0.00, -0.00, -1.00, 581.3, 380.0)">n</text><text xml:space="preserve" font-family="CourierNewPSMT" font-size="37.0" fill="#000000" transform="matrix(1.00, 0.00, -0.00, -1.00, 603.5, 380.0)">u</text><text xml:space="preserve" font-family="CourierNewPSMT" font-size="37.0" fill="#000000" transform="matrix(1.00, 0.00, -0.00, -1.00, 625.7, 380.0)">m</text><text xml:space="preserve" font-family="CourierNewPSMT" font-size="37.0" fill="#000000" transform="matrix(1.00, 0.00, -0.00, -1.00, 647.9, 380.0)">2</text><text xml:space="preserve" font-family="CourierNewPSMT" font-size="37.0" fill="#000000" transform="matrix(1.00, 0.00, -0.00, -1.00, 670.1, 380.0)">,</text><text xml:space="preserve" font-family="CourierNewPSMT" font-size="37.0" fill="#000000" transform="matrix(1.00, 0.00, -0.00, -1.00, 692.4, 380.0)"> </text><text xml:space="preserve" font-family="CourierNewPSMT" font-size="37.0" fill="#000000" transform="matrix(1.00, 0.00, -0.00, -1.00, 714.6, 380.0)">n</text><text xml:space="preserve" font-family="CourierNewPSMT" font-size="37.0" fill="#000000" transform="matrix(1.00, 0.00, -0.00, -1.00, 736.8, 380.0)">u</text><text xml:space="preserve" font-family="CourierNewPSMT" font-size="37.0" fill="#000000" transform="matrix(1.00, 0.00, -0.00, -1.00, 759.0, 380.0)">m</text><text xml:space="preserve" font-family="CourierNewPSMT" font-size="37.0" fill="#000000" transform="matrix(1.00, 0.00, -0.00, -1.00, 781.2, 380.0)">3</text><text xml:space="preserve" font-family="CourierNewPSMT" font-size="37.0" fill="#000000" transform="matrix(1.00, 0.00, -0.00, -1.00, 803.4, 380.0)">,</text><text xml:space="preserve" font-family="CourierNewPSMT" font-size="37.0" fill="#000000" transform="matrix(1.00, 0.00, -0.00, -1.00, 825.6, 380.0)"> </text><text xml:space="preserve" font-family="CourierNewPSMT" font-size="37.0" fill="#000000" transform="matrix(1.00, 0.00, -0.00, -1.00, 847.8, 380.0)">n</text><text xml:space="preserve" font-family="CourierNewPSMT" font-size="37.0" fill="#000000" transform="matrix(1.00, 0.00, -0.00, -1.00, 870.0, 380.0)">u</text><text xml:space="preserve" font-family="CourierNewPSMT" font-size="37.0" fill="#000000" transform="matrix(1.00, 0.00, -0.00, -1.00, 892.2, 380.0)">m</text><text xml:space="preserve" font-family="CourierNewPSMT" font-size="37.0" fill="#000000" transform="matrix(1.00, 0.00, -0.00, -1.00, 914.4, 380.0)">4</text><text xml:space="preserve" font-family="CourierNewPSMT" font-size="37.0" fill="#000000" transform="matrix(1.00, 0.00, -0.00, -1.00, 936.6, 380.0)">)</text><text xml:space="preserve" font-family="CourierNewPSMT" font-size="37.0" fill="#000000" transform="matrix(1.00, 0.00, -0.00, -1.00, 958.8, 380.0)"> </text><text xml:space="preserve" font-family="CourierNewPSMT" font-size="37.0" fill="#000000" transform="matrix(1.00, 0.00, -0.00, -1.00, 981.1, 380.0)">{</text><text xml:space="preserve" font-family="CourierNewPSMT" font-size="37.0" fill="#000000" transform="matrix(1.00, 0.00, -0.00, -1.00, 1003.3, 380.0)"> </text><text xml:space="preserve" font-family="CourierNewPSMT" font-size="37.0" fill="#000000" transform="matrix(1.00, 0.00, -0.00, -1.00, 4.0, 338.0)"> </text><text xml:space="preserve" font-family="CourierNewPSMT" font-size="37.0" fill="#000000" transform="matrix(1.00, 0.00, -0.00, -1.00, 26.2, 338.0)"> </text><text xml:space="preserve" font-family="CourierNewPS-BoldMT" font-weight="bold" font-size="37.0" fill="#000000" transform="matrix(1.00, 0.00, -0.00, -1.00, 48.4, 338.0)">r</text><text xml:space="preserve" font-family="CourierNewPS-BoldMT" font-weight="bold" font-size="37.0" fill="#000000" transform="matrix(1.00, 0.00, -0.00, -1.00, 70.6, 338.0)">e</text><text xml:space="preserve" font-family="CourierNewPS-BoldMT" font-weight="bold" font-size="37.0" fill="#000000" transform="matrix(1.00, 0.00, -0.00, -1.00, 92.8, 338.0)">t</text><text xml:space="preserve" font-family="CourierNewPS-BoldMT" font-weight="bold" font-size="37.0" fill="#000000" transform="matrix(1.00, 0.00, -0.00, -1.00, 115.0, 338.0)">u</text><text xml:space="preserve" font-family="CourierNewPS-BoldMT" font-weight="bold" font-size="37.0" fill="#000000" transform="matrix(1.00, 0.00, -0.00, -1.00, 137.2, 338.0)">r</text><text xml:space="preserve" font-family="CourierNewPS-BoldMT" font-weight="bold" font-size="37.0" fill="#000000" transform="matrix(1.00, 0.00, -0.00, -1.00, 159.4, 338.0)">n</text><text xml:space="preserve" font-family="CourierNewPSMT" font-size="37.0" fill="#000000" transform="matrix(1.00, 0.00, -0.00, -1.00, 181.6, 338.0)"> </text><text xml:space="preserve" font-family="CourierNewPSMT" font-size="37.0" fill="#000000" transform="matrix(1.00, 0.00, -0.00, -1.00, 203.8, 338.0)">n</text><text xml:space="preserve" font-family="CourierNewPSMT" font-size="37.0" fill="#000000" transform="matrix(1.00, 0.00, -0.00, -1.00, 226.0, 338.0)">u</text><text xml:space="preserve" font-family="CourierNewPSMT" font-size="37.0" fill="#000000" transform="matrix(1.00, 0.00, -0.00, -1.00, 248.3, 338.0)">m</text><text xml:space="preserve" font-family="CourierNewPSMT" font-size="37.0" fill="#000000" transform="matrix(1.00, 0.00, -0.00, -1.00, 270.5, 338.0)">1</text><text xml:space="preserve" font-family="CourierNewPSMT" font-size="37.0" fill="#000000" transform="matrix(1.00, 0.00, -0.00, -1.00, 292.7, 338.0)"> </text><text xml:space="preserve" font-family="CourierNewPSMT" font-size="37.0" fill="#000000" transform="matrix(1.00, 0.00, -0.00, -1.00, 314.9, 338.0)">+</text><text xml:space="preserve" font-family="CourierNewPSMT" font-size="37.0" fill="#000000" transform="matrix(1.00, 0.00, -0.00, -1.00, 337.1, 338.0)"> </text><text xml:space="preserve" font-family="CourierNewPSMT" font-size="37.0" fill="#000000" transform="matrix(1.00, 0.00, -0.00, -1.00, 359.3, 338.0)">n</text><text xml:space="preserve" font-family="CourierNewPSMT" font-size="37.0" fill="#000000" transform="matrix(1.00, 0.00, -0.00, -1.00, 381.5, 338.0)">u</text><text xml:space="preserve" font-family="CourierNewPSMT" font-size="37.0" fill="#000000" transform="matrix(1.00, 0.00, -0.00, -1.00, 403.7, 338.0)">m</text><text xml:space="preserve" font-family="CourierNewPSMT" font-size="37.0" fill="#000000" transform="matrix(1.00, 0.00, -0.00, -1.00, 425.9, 338.0)">2</text><text xml:space="preserve" font-family="CourierNewPSMT" font-size="37.0" fill="#000000" transform="matrix(1.00, 0.00, -0.00, -1.00, 448.1, 338.0)"> </text><text xml:space="preserve" font-family="CourierNewPSMT" font-size="37.0" fill="#000000" transform="matrix(1.00, 0.00, -0.00, -1.00, 470.3, 338.0)">+</text><text xml:space="preserve" font-family="CourierNewPSMT" font-size="37.0" fill="#000000" transform="matrix(1.00, 0.00, -0.00, -1.00, 492.5, 338.0)"> </text><text xml:space="preserve" font-family="CourierNewPSMT" font-size="37.0" fill="#000000" transform="matrix(1.00, 0.00, -0.00, -1.00, 514.7, 338.0)">n</text><text xml:space="preserve" font-family="CourierNewPSMT" font-size="37.0" fill="#000000" transform="matrix(1.00, 0.00, -0.00, -1.00, 536.9, 338.0)">u</text><text xml:space="preserve" font-family="CourierNewPSMT" font-size="37.0" fill="#000000" transform="matrix(1.00, 0.00, -0.00, -1.00, 559.2, 338.0)">m</text><text xml:space="preserve" font-family="CourierNewPSMT" font-size="37.0" fill="#000000" transform="matrix(1.00, 0.00, -0.00, -1.00, 581.4, 338.0)">3</text><text xml:space="preserve" font-family="CourierNewPSMT" font-size="37.0" fill="#000000" transform="matrix(1.00, 0.00, -0.00, -1.00, 603.6, 338.0)"> </text><text xml:space="preserve" font-family="CourierNewPSMT" font-size="37.0" fill="#000000" transform="matrix(1.00, 0.00, -0.00, -1.00, 625.8, 338.0)">+</text><text xml:space="preserve" font-family="CourierNewPSMT" font-size="37.0" fill="#000000" transform="matrix(1.00, 0.00, -0.00, -1.00, 648.0, 338.0)"> </text><text xml:space="preserve" font-family="CourierNewPSMT" font-size="37.0" fill="#000000" transform="matrix(1.00, 0.00, -0.00, -1.00, 670.2, 338.0)">n</text><text xml:space="preserve" font-family="CourierNewPSMT" font-size="37.0" fill="#000000" transform="matrix(1.00, 0.00, -0.00, -1.00, 692.4, 338.0)">u</text><text xml:space="preserve" font-family="CourierNewPSMT" font-size="37.0" fill="#000000" transform="matrix(1.00, 0.00, -0.00, -1.00, 714.6, 338.0)">m</text><text xml:space="preserve" font-family="CourierNewPSMT" font-size="37.0" fill="#000000" transform="matrix(1.00, 0.00, -0.00, -1.00, 736.8, 338.0)">4</text><text xml:space="preserve" font-family="CourierNewPSMT" font-size="37.0" fill="#000000" transform="matrix(1.00, 0.00, -0.00, -1.00, 759.0, 338.0)"> </text><text xml:space="preserve" font-family="CourierNewPSMT" font-size="37.0" fill="#000000" transform="matrix(1.00, 0.00, -0.00, -1.00, 4.0, 296.0)">}</text><text xml:space="preserve" font-family="CourierNewPSMT" font-size="37.0" fill="#000000" transform="matrix(1.00, 0.00, -0.00, -1.00, 26.2, 296.0)"> </text></g></svg>