<?xml version="1.0" encoding="UTF-8" standalone="no"?><svg xmlns="http://www.w3.org/2000/svg" xmlns:xlink="http://www.w3.org/1999/xlink" clip-rule="evenodd" stroke-miterlimit="4.00" viewBox="0 0 1024 768"><desc>SVG generated by Keynote</desc><defs></defs><g transform="matrix(1.00, 0.00, -0.00, -1.00, 0.0, 768.0)"><path d="M 0.0 768.0 L 1024.0 768.0 L 1024.0 0.0 L 0.0 0.0 Z M 0.0 768.0 " fill="#FEFFFF"></path><text xml:space="preserve" font-family="CourierNewPS-BoldMT" font-weight="bold" font-size="41.0" fill="#C82505" transform="matrix(1.00, 0.00, -0.00, -1.00, 189.0, 419.0)">v</text><text xml:space="preserve" font-family="CourierNewPS-BoldMT" font-weight="bold" font-size="41.0" fill="#C82505" transform="matrix(1.00, 0.00, -0.00, -1.00, 213.6, 419.0)">a</text><text xml:space="preserve" font-family="CourierNewPS-BoldMT" font-weight="bold" font-size="41.0" fill="#C82505" transform="matrix(1.00, 0.00, -0.00, -1.00, 238.2, 419.0)">r</text><text xml:space="preserve" font-family="CourierNewPS-BoldMT" font-weight="bold" font-size="41.0" fill="#000000" transform="matrix(1.00, 0.00, -0.00, -1.00, 262.8, 419.0)"> </text><text xml:space="preserve" font-family="CourierNewPSMT" font-size="41.0" fill="#000000" transform="matrix(1.00, 0.00, -0.00, -1.00, 287.4, 419.0)">p</text><text xml:space="preserve" font-family="CourierNewPSMT" font-size="41.0" fill="#000000" transform="matrix(1.00, 0.00, -0.00, -1.00, 312.0, 419.0)">e</text><text xml:space="preserve" font-family="CourierNewPSMT" font-size="41.0" fill="#000000" transform="matrix(1.00, 0.00, -0.00, -1.00, 336.6, 419.0)">r</text><text xml:space="preserve" font-family="CourierNewPSMT" font-size="41.0" fill="#000000" transform="matrix(1.00, 0.00, -0.00, -1.00, 361.2, 419.0)">s</text><text xml:space="preserve" font-family="CourierNewPSMT" font-size="41.0" fill="#000000" transform="matrix(1.00, 0.00, -0.00, -1.00, 385.8, 419.0)">o</text><text xml:space="preserve" font-family="CourierNewPSMT" font-size="41.0" fill="#000000" transform="matrix(1.00, 0.00, -0.00, -1.00, 410.5, 419.0)">n</text><text xml:space="preserve" font-family="CourierNewPSMT" font-size="41.0" fill="#000000" transform="matrix(1.00, 0.00, -0.00, -1.00, 435.1, 419.0)">a</text><text xml:space="preserve" font-family="CourierNewPSMT" font-size="41.0" fill="#000000" transform="matrix(1.00, 0.00, -0.00, -1.00, 459.7, 419.0)">l</text><text xml:space="preserve" font-family="CourierNewPSMT" font-size="41.0" fill="#000000" transform="matrix(1.00, 0.00, -0.00, -1.00, 484.3, 419.0)">i</text><text xml:space="preserve" font-family="CourierNewPSMT" font-size="41.0" fill="#000000" transform="matrix(1.00, 0.00, -0.00, -1.00, 508.9, 419.0)">t</text><text xml:space="preserve" font-family="CourierNewPSMT" font-size="41.0" fill="#000000" transform="matrix(1.00, 0.00, -0.00, -1.00, 533.5, 419.0)">y</text><text xml:space="preserve" font-family="CourierNewPSMT" font-size="41.0" fill="#000000" transform="matrix(1.00, 0.00, -0.00, -1.00, 558.1, 419.0)"> </text><text xml:space="preserve" font-family="CourierNewPSMT" font-size="41.0" fill="#000000" transform="matrix(1.00, 0.00, -0.00, -1.00, 582.7, 419.0)">=</text><text xml:space="preserve" font-family="CourierNewPSMT" font-size="41.0" fill="#000000" transform="matrix(1.00, 0.00, -0.00, -1.00, 607.3, 419.0)"> </text><text xml:space="preserve" font-family="CourierNewPSMT" font-size="41.0" fill="#CC1C00" transform="matrix(1.00, 0.00, -0.00, -1.00, 631.9, 419.0)">“</text><text xml:space="preserve" font-family="CourierNewPSMT" font-size="41.0" fill="#CC1C00" transform="matrix(1.00, 0.00, -0.00, -1.00, 656.5, 419.0)">a</text><text xml:space="preserve" font-family="CourierNewPSMT" font-size="41.0" fill="#CC1C00" transform="matrix(1.00, 0.00, -0.00, -1.00, 681.1, 419.0)">w</text><text xml:space="preserve" font-family="CourierNewPSMT" font-size="41.0" fill="#CC1C00" transform="matrix(1.00, 0.00, -0.00, -1.00, 705.7, 419.0)">e</text><text xml:space="preserve" font-family="CourierNewPSMT" font-size="41.0" fill="#CC1C00" transform="matrix(1.00, 0.00, -0.00, -1.00, 730.3, 419.0)">s</text><text xml:space="preserve" font-family="CourierNewPSMT" font-size="41.0" fill="#CC1C00" transform="matrix(1.00, 0.00, -0.00, -1.00, 754.9, 419.0)">o</text><text xml:space="preserve" font-family="CourierNewPSMT" font-size="41.0" fill="#CC1C00" transform="matrix(1.00, 0.00, -0.00, -1.00, 779.5, 419.0)">m</text><text xml:space="preserve" font-family="CourierNewPSMT" font-size="41.0" fill="#CC1C00" transform="matrix(1.00, 0.00, -0.00, -1.00, 804.1, 419.0)">e</text><text xml:space="preserve" font-family="CourierNewPSMT" font-size="41.0" fill="#CC1C00" transform="matrix(1.00, 0.00, -0.00, -1.00, 828.7, 419.0)">"</text><text xml:space="preserve" font-family="CourierNewPSMT" font-size="41.0" fill="#CC1C00" transform="matrix(1.00, 0.00, -0.00, -1.00, 853.3, 419.0)"> </text></g></svg>